<?xml version="1.0" encoding="UTF-8" standalone="no"?>
<!DOCTYPE svg PUBLIC "-//W3C//DTD SVG 1.1//EN" "http://www.w3.org/Graphics/SVG/1.1/DTD/svg11.dtd">
<svg width="100%" height="100%" viewBox="0 0 504 504" version="1.1" xmlns="http://www.w3.org/2000/svg" xmlns:xlink="http://www.w3.org/1999/xlink" xml:space="preserve" xmlns:serif="http://www.serif.com/" style="fill-rule:evenodd;clip-rule:evenodd;stroke-linejoin:round;stroke-miterlimit:1.41421;">
    <g id="Layer1">
        <g transform="matrix(13.6749,0,0,16.0392,-1269.28,-4565.33)">
            <path d="M112.025,313.718L110.43,313.718L110.43,287.415L112.025,287.415L112.025,313.718ZM109.68,285.914C109.266,285.914 108.93,286.25 108.93,286.664L108.93,314.468C108.93,314.882 109.266,315.218 109.68,315.218L112.775,315.218C113.19,315.218 113.526,314.882 113.526,314.468L113.526,286.664C113.526,286.25 113.19,285.914 112.775,285.914L109.68,285.914Z" style="fill-rule:nonzero;"/>
        </g>
        <g transform="matrix(13.6749,0,0,16.0392,-1269.28,-4565.33)">
            <path d="M115.775,298.416L125.242,298.416L127.021,299.991L125.242,301.566L115.775,301.566L115.775,298.416ZM126.024,302.877L128.649,300.552C128.811,300.41 128.901,300.206 128.901,299.991C128.901,299.776 128.811,299.572 128.649,299.43L126.024,297.104C125.887,296.982 125.71,296.916 125.527,296.916L115.026,296.916C114.611,296.916 114.275,297.251 114.275,297.666L114.275,302.316C114.275,302.73 114.611,303.066 115.026,303.066L125.527,303.066C125.71,303.066 125.887,302.999 126.024,302.877Z" style="fill-rule:nonzero;"/>
        </g>
        <g transform="matrix(13.6749,0,0,16.0392,-1269.28,-4565.33)">
            <path d="M115.775,293.965L115.775,290.815L125.242,290.815L127.021,292.39L125.242,293.965L115.775,293.965ZM115.026,289.314C114.611,289.314 114.275,289.65 114.275,290.064L114.275,294.715C114.275,295.129 114.611,295.465 115.026,295.465L125.527,295.465C125.71,295.465 125.887,295.398 126.024,295.277L128.649,292.951C128.811,292.81 128.901,292.605 128.901,292.39C128.901,292.175 128.811,291.971 128.649,291.829L126.024,289.503C125.887,289.382 125.71,289.314 125.527,289.314L115.026,289.314Z" style="fill-rule:nonzero;"/>
        </g>
        <g transform="matrix(13.6749,0,0,16.0392,-1269.28,-4565.33)">
            <path d="M106.69,290.815L106.69,293.965L97.223,293.965L95.444,292.39L97.223,290.815L106.69,290.815ZM96.441,295.277C96.578,295.398 96.755,295.465 96.938,295.465L107.44,295.465C107.854,295.465 108.19,295.129 108.19,294.715L108.19,290.064C108.19,289.65 107.854,289.314 107.44,289.314L96.938,289.314C96.755,289.314 96.578,289.382 96.441,289.503L93.816,291.829C93.655,291.971 93.563,292.175 93.563,292.39C93.563,292.605 93.655,292.81 93.816,292.951L96.441,295.277Z" style="fill-rule:nonzero;"/>
        </g>
    </g>
</svg>
