<?xml version="1.0" encoding="UTF-8" standalone="no"?>
<!DOCTYPE svg PUBLIC "-//W3C//DTD SVG 1.1//EN" "http://www.w3.org/Graphics/SVG/1.1/DTD/svg11.dtd">
<svg width="100%" height="100%" viewBox="0 0 504 504" version="1.1" xmlns="http://www.w3.org/2000/svg" xmlns:xlink="http://www.w3.org/1999/xlink" xml:space="preserve" xmlns:serif="http://www.serif.com/" style="fill-rule:evenodd;clip-rule:evenodd;stroke-linejoin:round;stroke-miterlimit:1.41421;">
    <g id="Layer2">
        <g transform="matrix(10.8656,0,0,10.8656,-2155.56,-8506.53)">
            <path d="M202.382,813.276C202.382,811.893 203.507,810.768 204.89,810.768C206.273,810.768 207.398,811.893 207.398,813.276C207.398,813.449 207.443,813.609 207.515,813.754C207.855,815.99 209.785,817.71 212.114,817.71C214.533,817.71 216.526,815.856 216.75,813.495C216.765,813.424 216.772,813.351 216.772,813.276C216.772,811.893 217.897,810.768 219.281,810.768C220.664,810.768 221.789,811.893 221.789,813.276C221.789,813.449 221.833,813.609 221.906,813.754C222.246,815.99 224.176,817.71 226.505,817.71C228.924,817.71 230.917,815.856 231.141,813.495C231.155,813.424 231.163,813.351 231.163,813.276C231.163,811.893 232.288,810.768 233.671,810.768C235.054,810.768 236.179,811.893 236.179,813.276C236.179,813.87 236.661,814.351 237.254,814.351C237.848,814.351 238.33,813.87 238.33,813.276C238.33,810.708 236.24,808.618 233.671,808.618C231.252,808.618 229.259,810.472 229.035,812.833C229.021,812.904 229.013,812.977 229.013,813.052C229.013,814.435 227.888,815.56 226.505,815.56C225.122,815.56 223.997,814.435 223.997,813.052C223.997,812.879 223.953,812.718 223.88,812.574C223.54,810.338 221.61,808.618 219.281,808.618C216.861,808.618 214.869,810.472 214.645,812.833C214.63,812.904 214.623,812.977 214.623,813.052C214.623,814.435 213.498,815.56 212.114,815.56C210.731,815.56 209.606,814.435 209.606,813.052C209.606,812.879 209.562,812.718 209.49,812.574C209.149,810.338 207.22,808.618 204.89,808.618C202.321,808.618 200.232,810.708 200.232,813.276C200.232,813.87 200.713,814.351 201.307,814.351C201.352,814.351 201.395,814.343 201.439,814.338C201.97,814.272 202.382,813.825 202.382,813.276Z" style="fill-rule:nonzero;"/>
        </g>
        <g transform="matrix(10.8656,0,0,10.8656,-2155.56,-8506.53)">
            <path d="M221.617,799.686L221.617,794.525L232.867,794.525L232.867,799.686L221.617,799.686ZM232.867,788.209L232.867,792.375L221.617,792.375L221.617,788.209C221.617,786.826 222.847,785.701 224.357,785.701C225.867,785.701 227.096,786.826 227.096,788.209C227.096,788.802 227.577,789.284 228.171,789.284C228.765,789.284 229.246,788.802 229.246,788.209C229.246,785.64 227.053,783.55 224.357,783.55C221.661,783.55 219.467,785.64 219.467,788.209L219.467,805.538C219.467,806.131 219.948,806.613 220.542,806.613C221.136,806.613 221.617,806.131 221.617,805.538L221.617,801.835L232.867,801.835L232.867,805.538C232.867,806.131 233.348,806.613 233.941,806.613C234.536,806.613 235.017,806.131 235.017,805.538L235.017,788.209C235.017,786.826 236.246,785.701 237.756,785.701C239.267,785.701 240.496,786.826 240.496,788.209C240.496,788.802 240.977,789.284 241.57,789.284C242.165,789.284 242.646,788.802 242.646,788.209C242.646,785.64 240.452,783.55 237.756,783.55C235.06,783.55 232.867,785.64 232.867,788.209Z" style="fill-rule:nonzero;"/>
        </g>
        <g transform="matrix(10.8656,0,0,10.8656,-2155.56,-8506.53)">
            <path d="M233.671,819.227C231.252,819.227 229.259,821.081 229.035,823.442C229.021,823.512 229.013,823.585 229.013,823.661C229.013,825.043 227.888,826.168 226.505,826.168C225.122,826.168 223.997,825.043 223.997,823.661C223.997,823.488 223.953,823.327 223.88,823.183C223.54,820.947 221.61,819.227 219.281,819.227C216.861,819.227 214.869,821.081 214.645,823.442C214.63,823.512 214.623,823.585 214.623,823.661C214.623,825.043 213.498,826.168 212.114,826.168C210.731,826.168 209.606,825.043 209.606,823.661C209.606,823.488 209.562,823.327 209.49,823.183C209.149,820.947 207.22,819.227 204.89,819.227C203.521,819.227 202.292,819.824 201.439,820.767C200.691,821.593 200.232,822.685 200.232,823.884C200.232,824.478 200.713,824.959 201.307,824.959C201.352,824.959 201.395,824.952 201.439,824.946C201.97,824.88 202.382,824.433 202.382,823.884C202.382,822.501 203.507,821.376 204.89,821.376C206.273,821.376 207.398,822.501 207.398,823.884C207.398,824.057 207.443,824.218 207.515,824.362C207.855,826.598 209.785,828.319 212.114,828.319C214.534,828.319 216.526,826.464 216.75,824.103C216.765,824.033 216.772,823.959 216.772,823.884C216.772,822.501 217.897,821.376 219.281,821.376C220.664,821.376 221.789,822.501 221.789,823.884C221.789,824.057 221.833,824.218 221.906,824.362C222.246,826.598 224.175,828.319 226.505,828.319C228.924,828.319 230.917,826.464 231.141,824.103C231.155,824.033 231.163,823.959 231.163,823.884C231.163,822.501 232.288,821.376 233.671,821.376C235.054,821.376 236.179,822.501 236.179,823.884C236.179,824.478 236.661,824.959 237.254,824.959C237.848,824.959 238.33,824.478 238.33,823.884C238.33,822.755 237.925,821.719 237.254,820.912C236.399,819.883 235.111,819.227 233.671,819.227Z" style="fill-rule:nonzero;"/>
        </g>
    </g>
</svg>
