<?xml version="1.0" encoding="UTF-8" standalone="no"?>
<!DOCTYPE svg PUBLIC "-//W3C//DTD SVG 1.1//EN" "http://www.w3.org/Graphics/SVG/1.1/DTD/svg11.dtd">
<svg width="100%" height="100%" viewBox="0 0 504 504" version="1.1" xmlns="http://www.w3.org/2000/svg" xmlns:xlink="http://www.w3.org/1999/xlink" xml:space="preserve" xmlns:serif="http://www.serif.com/" style="fill-rule:evenodd;clip-rule:evenodd;stroke-linejoin:round;stroke-miterlimit:1.41421;">
    <g transform="matrix(13.7684,0,0,13.7684,-2208.72,-9821.18)">
        <g id="Layer3">
            <path d="M188.845,726.677L196.241,726.677L196.241,745.074L161.338,745.074L161.338,744.096L161.338,738.378L161.338,726.677L168.735,726.677L168.735,738.378L188.845,738.378L188.845,726.677ZM178.79,713.975C184.94,713.975 190.235,719.002 191.358,725.697L187.732,725.697L187.732,737.398L169.858,737.398L169.858,725.697L166.232,725.697C167.344,719.002 172.505,713.975 178.79,713.975ZM164.964,745.764L167.623,745.764L167.623,749.39L164.964,749.39L164.964,745.764ZM189.123,745.764L191.637,745.764L191.637,749.39L189.123,749.39L189.123,745.764Z"/>
        </g>
    </g>
</svg>
