<?xml version="1.0" encoding="UTF-8" standalone="no"?>
<!DOCTYPE svg PUBLIC "-//W3C//DTD SVG 1.1//EN" "http://www.w3.org/Graphics/SVG/1.1/DTD/svg11.dtd">
<svg width="100%" height="100%" viewBox="0 0 504 504" version="1.1" xmlns="http://www.w3.org/2000/svg" xmlns:xlink="http://www.w3.org/1999/xlink" xml:space="preserve" xmlns:serif="http://www.serif.com/" style="fill-rule:evenodd;clip-rule:evenodd;stroke-linejoin:round;stroke-miterlimit:1.41421;">
    <g transform="matrix(11.4339,0,0,11.4339,-10119,-1024.13)">
        <g id="Layer4">
            <path d="M924.098,113.399C922.358,114.856 919.727,115.437 916.472,115.086C916.519,115.022 916.565,114.958 916.611,114.893C917.073,114.936 917.453,114.956 917.801,114.956C918.07,114.956 918.332,114.947 918.588,114.929C920.382,114.808 921.867,114.263 923.01,113.305C924.104,112.388 924.811,111.141 925.096,109.646C925.191,109.148 925.239,108.622 925.239,108.072C925.239,104.557 922.182,103.361 920.678,102.986C920.686,102.857 920.691,102.728 920.696,102.598C921.377,102.702 922.307,102.905 923.233,103.306C925.353,104.222 926.427,105.729 926.427,107.784C926.427,110.18 925.622,112.122 924.098,113.399ZM903.314,120.481C895.054,120.481 888.235,112.801 887.667,102.935C888.55,103.286 889.792,103.583 891.446,103.842C894.546,104.326 898.658,104.593 903.024,104.593C907.391,104.593 911.503,104.326 914.603,103.842C916.667,103.52 918.106,103.132 918.98,102.661C918.538,112.686 911.719,120.481 903.314,120.481ZM917.522,120.696C917.522,121.737 912.128,123.649 903.315,123.649C894.501,123.649 889.107,121.737 889.107,120.696C889.107,120.275 890.299,119.392 893.571,118.669C896.457,120.98 899.824,122.202 903.314,122.202C906.797,122.202 910.161,120.979 913.049,118.667C916.328,119.391 917.522,120.275 917.522,120.696ZM903.024,99.536C911.142,99.536 916.73,100.458 918.126,101.205C916.73,101.95 911.142,102.873 903.024,102.873C894.907,102.873 889.318,101.95 887.922,101.205C889.318,100.458 894.907,99.536 903.024,99.536ZM920.521,104.726C921.942,105.123 923.523,106.025 923.523,108.072C923.523,109.747 922.965,111.1 921.909,111.985C920.896,112.834 919.476,113.243 917.68,113.23C919.154,110.688 920.131,107.76 920.521,104.726ZM920.713,100.851L920.712,100.687L919.969,100.687C919.695,100.018 918.714,99.209 914.603,98.566C911.503,98.082 907.391,97.815 903.024,97.815C898.658,97.815 894.545,98.082 891.446,98.566C887.291,99.216 886.324,100.039 886.066,100.719L885.915,100.727L885.908,101.644C885.908,107.683 888.135,113.359 892.03,117.283C888.952,118.115 887.392,119.263 887.392,120.696C887.392,124.392 897.808,125.369 903.315,125.369C908.822,125.369 919.238,124.392 919.238,120.696C919.238,119.261 917.675,118.113 914.59,117.281C914.809,117.062 915.009,116.853 915.195,116.648C916.279,116.821 917.309,116.909 918.256,116.909C921.129,116.909 923.465,116.172 925.199,114.718C927.125,113.103 928.143,110.706 928.143,107.784C928.143,103.31 924.185,101.264 920.713,100.851Z" style="fill-rule:nonzero;"/>
        </g>
    </g>
</svg>
