<?xml version="1.0" encoding="UTF-8" standalone="no"?>
<!DOCTYPE svg PUBLIC "-//W3C//DTD SVG 1.1//EN" "http://www.w3.org/Graphics/SVG/1.1/DTD/svg11.dtd">
<svg width="100%" height="100%" viewBox="0 0 504 504" version="1.1" xmlns="http://www.w3.org/2000/svg" xmlns:xlink="http://www.w3.org/1999/xlink" xml:space="preserve" xmlns:serif="http://www.serif.com/" style="fill-rule:evenodd;clip-rule:evenodd;stroke-linejoin:round;stroke-miterlimit:1.41421;">
    <g id="Layer5">
        <g transform="matrix(9.14543,0,0,9.14543,-5358.48,-6213.12)">
            <path d="M591.592,686.552L634.814,686.552L634.814,719.895L591.592,719.895L591.592,686.552ZM590.562,721.953L635.843,721.953C636.412,721.953 636.872,721.492 636.872,720.924L636.872,685.522C636.872,684.954 636.412,684.493 635.843,684.493L590.562,684.493C589.994,684.493 589.533,684.954 589.533,685.522L589.533,720.924C589.533,721.492 589.994,721.953 590.562,721.953Z" style="fill-rule:nonzero;"/>
        </g>
        <g transform="matrix(9.14543,0,0,9.14543,-5358.48,-6213.12)">
            <path d="M629.373,711.937L597.032,711.937L597.032,690.806L629.373,690.806L629.373,711.937ZM630.402,688.747L596.003,688.747C595.435,688.747 594.974,689.208 594.974,689.776L594.974,712.965C594.974,713.534 595.435,713.994 596.003,713.994L630.402,713.994C630.97,713.994 631.431,713.534 631.431,712.965L631.431,689.776C631.431,689.208 630.97,688.747 630.402,688.747Z" style="fill-rule:nonzero;"/>
        </g>
        <g transform="matrix(9.14543,0,0,9.14543,-5358.48,-6213.12)">
            <path d="M613.203,717.991C612.664,717.991 612.225,717.553 612.225,717.013C612.225,716.475 612.664,716.035 613.203,716.035C613.742,716.035 614.181,716.475 614.181,717.013C614.181,717.553 613.742,717.991 613.203,717.991ZM613.203,714.801C611.982,714.801 610.99,715.793 610.99,717.013C610.99,718.233 611.982,719.226 613.203,719.226C614.422,719.226 615.415,718.233 615.415,717.013C615.415,715.793 614.422,714.801 613.203,714.801Z" style="fill-rule:nonzero;"/>
        </g>
        <g transform="matrix(9.14543,0,0,9.14543,-5358.48,-6213.12)">
            <path d="M602.344,725.246L624.062,725.246L624.062,726.784L602.344,726.784L602.344,725.246ZM625.091,728.843C625.659,728.843 626.12,728.382 626.12,727.813L626.12,724.217C626.12,723.648 625.659,723.188 625.091,723.188L601.315,723.188C600.746,723.188 600.285,723.648 600.285,724.217L600.285,727.813C600.285,728.382 600.746,728.843 601.315,728.843L625.091,728.843Z" style="fill-rule:nonzero;"/>
        </g>
    </g>
</svg>
