<?xml version="1.0" encoding="UTF-8" standalone="no"?>
<!DOCTYPE svg PUBLIC "-//W3C//DTD SVG 1.1//EN" "http://www.w3.org/Graphics/SVG/1.1/DTD/svg11.dtd">
<svg width="100%" height="100%" viewBox="0 0 504 504" version="1.1" xmlns="http://www.w3.org/2000/svg" xmlns:xlink="http://www.w3.org/1999/xlink" xml:space="preserve" xmlns:serif="http://www.serif.com/" style="fill-rule:evenodd;clip-rule:evenodd;stroke-linejoin:round;stroke-miterlimit:1.41421;">
    <g id="Layer6">
        <g transform="matrix(10.808,0,0,10.808,-4258.59,-948.63)">
            <path d="M421.735,126.938L421.491,126.567L420.477,125.016C420.112,124.952 419.759,124.867 419.419,124.761C419.003,124.633 418.604,124.476 418.222,124.292C416.5,123.461 415.112,122.095 413.952,120.417C412.377,118.14 410.906,115.792 409.391,113.475C407.799,111.044 406.198,108.62 404.626,106.176C404.356,105.756 403.911,105.143 404.005,104.413C404.073,103.883 404.352,103.568 404.754,103.289C405.116,103.039 405.882,103.093 406.323,103.311C406.801,103.547 407.165,104.09 407.483,104.564C408.23,105.676 408.956,106.803 409.693,107.922C410.051,108.468 410.411,109.012 410.778,109.552C411.167,110.127 411.91,111.724 412.798,111.1C413.612,110.528 412.541,109.24 412.2,108.722C411.84,108.177 411.482,107.63 411.131,107.079C409.497,104.518 407.828,101.977 406.261,99.375C405.552,98.198 405.783,97.44 406.716,96.931C407.602,96.448 408.328,96.728 409.064,97.85C410.976,100.765 412.884,103.684 414.794,106.6C415.063,107.009 415.223,107.348 415.728,107.518C416.1,107.643 416.468,107.574 416.609,107.193C416.847,106.55 416.654,106.208 416.317,105.694C414.071,102.261 411.82,98.832 409.581,95.396C408.846,94.269 409.084,93.23 410.157,92.743C410.96,92.378 411.718,92.684 412.378,93.687C414.669,97.172 416.953,100.661 419.228,104.155C419.599,104.725 420.048,105.205 420.71,104.74C421.343,104.295 420.985,103.723 420.65,103.214C418.884,100.529 417.125,97.841 415.372,95.148C415.139,94.79 414.902,94.415 414.779,94.011C414.5,93.099 415.125,92.154 416.064,91.989C417.026,91.818 417.495,92.394 417.938,93.075C420.926,97.656 423.913,102.237 426.942,106.791C427.222,107.211 427.807,107.702 428.238,107.69C429.042,107.668 428.955,106.836 429.005,106.244C429.13,104.782 429.192,103.315 429.343,101.856C429.459,100.729 430.162,100.077 431.105,100.089C431.954,100.101 432.677,100.788 432.745,101.875C432.999,105.855 433.271,109.837 433.385,113.823C433.405,114.526 433.354,115.21 433.239,115.875C433.18,116.215 433.101,116.548 433.005,116.876C432.917,117.177 432.813,117.472 432.693,117.761L433.478,118.959L433.781,119.422L435.97,122.767L424.093,130.541L421.735,126.938ZM415.286,124.636C414.95,124.754 414.601,124.853 414.239,124.932L413.286,126.521L413.058,126.901L410.842,130.593L398.67,123.289L400.727,119.862L401.012,119.387L401.749,118.159C401.619,117.875 401.502,117.584 401.403,117.287C401.294,116.963 401.202,116.633 401.13,116.295C400.989,115.636 400.911,114.954 400.903,114.25C400.862,110.263 400.978,106.274 401.076,102.287C401.103,101.198 401.797,100.484 402.646,100.439C403.399,100.399 404.01,100.796 404.308,101.528C404.09,101.643 403.879,101.802 403.627,102.086C402.391,103.48 402.256,105.54 403.249,107.116C406.141,111.711 409.086,116.276 412.091,120.799C412.676,121.681 413.33,122.518 414.072,123.273C414.537,123.747 415.011,124.172 415.492,124.554C415.422,124.581 415.356,124.611 415.286,124.636ZM421.108,93.311C421.729,92.282 422.474,91.947 423.29,92.279C424.382,92.725 424.66,93.753 423.971,94.909C423.542,95.627 423.109,96.344 422.679,97.062C422.015,96.047 421.349,95.034 420.683,94.02C420.825,93.783 420.966,93.547 421.108,93.311ZM427.469,102.733C427.439,103.117 427.41,103.535 427.371,104.023C427.369,104.054 427.327,104.065 427.309,104.04C427.107,103.762 426.956,103.561 426.823,103.377C427.012,103.118 427.223,102.885 427.469,102.733ZM424.583,97.341C425.274,96.19 425.989,95.883 426.893,96.33C427.845,96.803 428.105,97.551 427.443,98.755C426.891,99.76 426.32,100.754 425.745,101.747C425.083,100.735 424.421,99.724 423.759,98.712C424.034,98.255 424.307,97.797 424.583,97.341ZM434.5,117.8C435.292,115.585 435.282,113.248 435.163,110.934C435.002,107.836 434.743,104.743 434.46,101.653C434.281,99.681 432.847,98.338 431.078,98.338C430.435,98.338 429.83,98.524 429.307,98.851C429.928,96.668 429.104,95.301 426.155,94.246C426.142,94.241 426.133,94.228 426.133,94.214C426.192,92.634 425.809,91.665 424.406,90.861C422.975,90.042 421.583,89.942 420.314,91.574C420.305,91.587 419.969,92.009 419.966,91.994C419.774,91.105 419.038,90.547 418.442,90.286C417.441,89.847 416.522,89.849 415.705,90.274C415.449,90.339 415.189,90.432 414.924,90.561C414.339,90.845 413.625,91.432 413.468,92.328C413.466,92.343 413.114,91.934 413.104,91.922C411.771,90.341 410.385,90.495 408.988,91.369C407.617,92.228 407.272,93.21 407.393,94.787C407.394,94.801 407.385,94.815 407.372,94.819C404.689,95.899 403.827,97.175 404.267,99.062C403.763,98.802 403.197,98.665 402.604,98.688C400.836,98.757 399.457,100.154 399.354,102.132C399.193,105.23 399.054,108.332 399.015,111.434C398.985,113.75 399.066,116.087 399.945,118.269L396.899,123.345L411.625,132.182L414.976,126.6C415.732,126.397 416.472,126.093 417.193,125.692C418.044,126.164 418.917,126.51 419.807,126.712L423.372,132.159L437.742,122.753L434.5,117.8Z" style="fill-rule:nonzero;"/>
        </g>
        <g transform="matrix(10.808,0,0,10.808,-4258.59,-948.63)">
            <path d="M427.356,113.565C427.229,113.938 427.023,114.283 426.748,114.578L421.855,119.762L417.125,114.753L417.091,114.72C416.988,114.625 416.892,114.524 416.808,114.419C416.643,114.215 416.501,113.961 416.39,113.674C416.371,113.622 416.348,113.572 416.324,113.522C416.232,113.234 416.185,112.933 416.185,112.626C416.185,112.309 416.239,111.992 416.345,111.682C416.708,110.624 417.64,109.914 418.665,109.914C419.625,109.914 420.509,110.532 420.917,111.488C421.076,111.861 421.441,112.103 421.848,112.103C422.253,112.103 422.618,111.861 422.777,111.488C423.185,110.532 424.068,109.914 425.028,109.914C426.396,109.914 427.509,111.13 427.509,112.626C427.509,112.949 427.458,113.265 427.356,113.565ZM425.028,108.624C423.731,108.624 422.534,109.336 421.848,110.479C421.16,109.336 419.962,108.624 418.665,108.624C417.088,108.624 415.665,109.685 415.125,111.264C414.972,111.708 414.895,112.167 414.895,112.626C414.895,113.08 414.966,113.524 415.105,113.943C415.12,113.99 415.138,114.031 415.156,114.069L415.741,113.795L415.158,114.073L415.742,113.797L415.159,114.074C415.167,114.089 415.174,114.105 415.184,114.13C415.347,114.551 415.555,114.921 415.803,115.229C415.924,115.378 416.058,115.522 416.204,115.656L421.855,121.641L427.703,115.445C428.09,115.032 428.393,114.524 428.577,113.979C428.724,113.545 428.799,113.09 428.799,112.626C428.799,110.419 427.107,108.624 425.028,108.624Z" style="fill-rule:nonzero;"/>
        </g>
    </g>
</svg>
