<?xml version="1.0" encoding="UTF-8" standalone="no"?>
<!-- Created with Inkscape (http://www.inkscape.org/) -->

<svg
   xmlns:dc="http://purl.org/dc/elements/1.1/"
   xmlns:cc="http://creativecommons.org/ns#"
   xmlns:rdf="http://www.w3.org/1999/02/22-rdf-syntax-ns#"
   xmlns:svg="http://www.w3.org/2000/svg"
   xmlns="http://www.w3.org/2000/svg"
   xmlns:sodipodi="http://sodipodi.sourceforge.net/DTD/sodipodi-0.dtd"
   xmlns:inkscape="http://www.inkscape.org/namespaces/inkscape"
   width="700"
   height="400"
   viewBox="0 0 185.20833 105.83334"
   version="1.1"
   id="svg8"
   inkscape:export-filename="C:\d\webshop\bootstrap\haramia\img\hazhozszallitas.png"
   inkscape:export-xdpi="101.11753"
   inkscape:export-ydpi="101.11753"
   inkscape:version="0.92.2 (5c3e80d, 2017-08-06)"
   sodipodi:docname="cseregarancia.svg">
  <defs
     id="defs2" />
  <sodipodi:namedview
     id="base"
     pagecolor="#ffffff"
     bordercolor="#666666"
     borderopacity="1.0"
     inkscape:pageopacity="0.0"
     inkscape:pageshadow="2"
     inkscape:zoom="0.91885246"
     inkscape:cx="470"
     inkscape:cy="151.42857"
     inkscape:document-units="px"
     inkscape:current-layer="layer1"
     showgrid="false"
     units="px"
     inkscape:window-width="1600"
     inkscape:window-height="837"
     inkscape:window-x="-8"
     inkscape:window-y="-8"
     inkscape:window-maximized="1" />
  <metadata
     id="metadata5">
    <rdf:RDF>
      <cc:Work
         rdf:about="">
        <dc:format>image/svg+xml</dc:format>
        <dc:type
           rdf:resource="http://purl.org/dc/dcmitype/StillImage" />
        <dc:title></dc:title>
      </cc:Work>
    </rdf:RDF>
  </metadata>
  <g
     inkscape:label="Layer 1"
     inkscape:groupmode="layer"
     id="layer1"
     transform="translate(0,-191.16665)">
    <g
       id="g4897"
       transform="matrix(0.19527234,0,0,0.1944426,51.230345,202.88521)"
       style="fill:#999999;fill-opacity:1">
      <g
         id="g4840"
         style="fill:#999999;fill-opacity:1">
        <path
           id="path4836"
           d="M 43.84,281.457 C 25.255,236.588 25.254,187.167 43.84,142.298 54.489,116.589 70.518,94.146 90.7,76.163 l 60.86,60.86 V 15.099 H 29.635 l 39.88,39.88 c -64.293,58.426 -88.5,153.2 -53.391,237.959 14.167,34.202 37.07,64.159 66.234,86.634 28.275,21.789 61.873,36.201 97.162,41.677 l 4.601,-29.646 C 120.778,381.774 68.337,340.597 43.84,281.457 Z"
           inkscape:connector-curvature="0"
           style="fill:#999999;fill-opacity:1" />
        <path
           id="path4838"
           d="m 407.516,292.938 c 21.652,-52.272 21.652,-109.848 0,-162.12 C 393.349,96.616 370.445,66.659 341.282,44.185 313.007,22.395 279.409,7.983 244.12,2.507 l -4.601,29.646 c 63.342,9.829 115.783,51.005 140.28,110.146 18.586,44.869 18.586,94.29 0,139.159 -10.649,25.709 -26.678,48.152 -46.859,66.135 l -60.86,-60.86 v 121.924 h 121.924 l -39.801,-39.801 c 22.915,-20.757 41.131,-46.508 53.313,-75.918 z"
           inkscape:connector-curvature="0"
           style="fill:#999999;fill-opacity:1" />
      </g>
      <g
         id="g4842"
         style="fill:#999999;fill-opacity:1" />
      <g
         id="g4844"
         style="fill:#999999;fill-opacity:1" />
      <g
         id="g4846"
         style="fill:#999999;fill-opacity:1" />
      <g
         id="g4848"
         style="fill:#999999;fill-opacity:1" />
      <g
         id="g4850"
         style="fill:#999999;fill-opacity:1" />
      <g
         id="g4852"
         style="fill:#999999;fill-opacity:1" />
      <g
         id="g4854"
         style="fill:#999999;fill-opacity:1" />
      <g
         id="g4856"
         style="fill:#999999;fill-opacity:1" />
      <g
         id="g4858"
         style="fill:#999999;fill-opacity:1" />
      <g
         id="g4860"
         style="fill:#999999;fill-opacity:1" />
      <g
         id="g4862"
         style="fill:#999999;fill-opacity:1" />
      <g
         id="g4864"
         style="fill:#999999;fill-opacity:1" />
      <g
         id="g4866"
         style="fill:#999999;fill-opacity:1" />
      <g
         id="g4868"
         style="fill:#999999;fill-opacity:1" />
      <g
         id="g4870"
         style="fill:#999999;fill-opacity:1" />
    </g>
  </g>
</svg>
