<?xml version="1.0" encoding="UTF-8" standalone="no"?>
<!-- Created with Inkscape (http://www.inkscape.org/) -->

<svg
   xmlns:dc="http://purl.org/dc/elements/1.1/"
   xmlns:cc="http://creativecommons.org/ns#"
   xmlns:rdf="http://www.w3.org/1999/02/22-rdf-syntax-ns#"
   xmlns:svg="http://www.w3.org/2000/svg"
   xmlns="http://www.w3.org/2000/svg"
   xmlns:sodipodi="http://sodipodi.sourceforge.net/DTD/sodipodi-0.dtd"
   xmlns:inkscape="http://www.inkscape.org/namespaces/inkscape"
   width="700"
   height="400"
   viewBox="0 0 185.20833 105.83334"
   version="1.1"
   id="svg8"
   inkscape:export-filename="C:\d\webshop\bootstrap\haramia\img\hazhozszallitas.png"
   inkscape:export-xdpi="101.11753"
   inkscape:export-ydpi="101.11753"
   inkscape:version="0.92.2 (5c3e80d, 2017-08-06)"
   sodipodi:docname="hazhozszallitas.svg">
  <defs
     id="defs2" />
  <sodipodi:namedview
     id="base"
     pagecolor="#ffffff"
     bordercolor="#666666"
     borderopacity="1.0"
     inkscape:pageopacity="0.0"
     inkscape:pageshadow="2"
     inkscape:zoom="0.91885246"
     inkscape:cx="470"
     inkscape:cy="151.42857"
     inkscape:document-units="px"
     inkscape:current-layer="layer1"
     showgrid="false"
     units="px"
     inkscape:window-width="1600"
     inkscape:window-height="837"
     inkscape:window-x="-8"
     inkscape:window-y="-8"
     inkscape:window-maximized="1" />
  <metadata
     id="metadata5">
    <rdf:RDF>
      <cc:Work
         rdf:about="">
        <dc:format>image/svg+xml</dc:format>
        <dc:type
           rdf:resource="http://purl.org/dc/dcmitype/StillImage" />
        <dc:title></dc:title>
      </cc:Work>
    </rdf:RDF>
  </metadata>
  <g
     inkscape:label="Layer 1"
     inkscape:groupmode="layer"
     id="layer1"
     transform="translate(0,-191.16665)">
    <g
       id="g4834"
       transform="matrix(0.17989224,0,0,0.16014772,-15.107474,179.74043)"
       style="fill:#999999">
      <g
         id="g4778"
         transform="translate(292.75647,95.771632)"
         style="fill:#999999">
        <path
           id="path4776"
           d="M 21.474,377.522 V 117.138 c 0,-14.469 11.729,-26.199 26.199,-26.199 h 260.25 c 14.469,0 26.198,11.73 26.198,26.199 v 260.385 c 0,4.823 -3.909,8.733 -8.733,8.733 H 30.207 c -4.824,0 -8.733,-3.91 -8.733,-8.734 z m 210.16,89.202 c 0,30.01 -24.329,54.338 -54.338,54.338 -30.009,0 -54.338,-24.328 -54.338,-54.338 0,-30.011 24.329,-54.338 54.338,-54.338 30.009,0 54.338,24.327 54.338,54.338 z m -27.17,0 c 0,-15.005 -12.164,-27.169 -27.169,-27.169 -15.005,0 -27.17,12.164 -27.17,27.169 0,15.005 12.165,27.17 27.17,27.17 15.005,0 27.169,-12.165 27.169,-27.17 z M 130.495,412.385 H 8.733 C 3.91,412.385 0,416.295 0,421.118 v 26.495 c 0,4.823 3.91,8.733 8.733,8.733 h 97.598 c 2.548,-17.484 11.373,-32.928 24.164,-43.961 z m 385.443,54.339 c 0,30.01 -24.329,54.338 -54.338,54.338 -30.01,0 -54.338,-24.328 -54.338,-54.338 0,-30.011 24.328,-54.338 54.338,-54.338 30.009,-0.001 54.338,24.327 54.338,54.338 z m -27.168,0 c 0,-15.005 -12.165,-27.169 -27.17,-27.169 -15.006,0 -27.169,12.164 -27.169,27.169 0,15.005 12.164,27.17 27.169,27.17 15.005,0 27.17,-12.165 27.17,-27.17 z M 612,421.118 v 26.495 c 0,4.823 -3.91,8.733 -8.733,8.733 h -70.704 c -5.057,-34.683 -34.906,-61.427 -70.961,-61.427 -36.062,0 -65.912,26.745 -70.969,61.427 H 248.261 c -2.549,-17.483 -11.373,-32.928 -24.164,-43.961 H 359.091 V 162.594 c 0,-9.646 7.82,-17.466 17.466,-17.466 h 82.445 c 23.214,0 44.911,11.531 57.9,30.77 l 53.15,78.721 c 7.796,11.547 11.962,25.161 11.962,39.094 v 118.672 h 21.253 c 4.823,0 8.733,3.91 8.733,8.733 z M 523.408,256.635 480.907,196.242 c -1.636,-2.324 -4.3,-3.707 -7.142,-3.707 H 407.47 c -4.822,0 -8.733,3.91 -8.733,8.733 v 60.393 c 0,4.824 3.91,8.733 8.733,8.733 h 108.798 c 7.074,0 11.212,-7.973 7.14,-13.759 z"
           inkscape:connector-curvature="0"
           style="fill:#999999" />
      </g>
      <g
         id="g4780"
         style="fill:#999999" />
      <g
         id="g4782"
         style="fill:#999999" />
      <g
         id="g4784"
         style="fill:#999999" />
      <g
         id="g4786"
         style="fill:#999999" />
      <g
         id="g4788"
         style="fill:#999999" />
      <g
         id="g4790"
         style="fill:#999999" />
      <g
         id="g4792"
         style="fill:#999999" />
      <g
         id="g4794"
         style="fill:#999999" />
      <g
         id="g4796"
         style="fill:#999999" />
      <g
         id="g4798"
         style="fill:#999999" />
      <g
         id="g4800"
         style="fill:#999999" />
      <g
         id="g4802"
         style="fill:#999999" />
      <g
         id="g4804"
         style="fill:#999999" />
      <g
         id="g4806"
         style="fill:#999999" />
      <g
         id="g4808"
         style="fill:#999999" />
    </g>
  </g>
</svg>
