<?xml version="1.0" encoding="UTF-8" standalone="no"?>
<!-- Created with Inkscape (http://www.inkscape.org/) -->

<svg
   xmlns:dc="http://purl.org/dc/elements/1.1/"
   xmlns:cc="http://creativecommons.org/ns#"
   xmlns:rdf="http://www.w3.org/1999/02/22-rdf-syntax-ns#"
   xmlns:svg="http://www.w3.org/2000/svg"
   xmlns="http://www.w3.org/2000/svg"
   xmlns:sodipodi="http://sodipodi.sourceforge.net/DTD/sodipodi-0.dtd"
   xmlns:inkscape="http://www.inkscape.org/namespaces/inkscape"
   width="700"
   height="400"
   viewBox="0 0 185.20833 105.83334"
   version="1.1"
   id="svg8"
   inkscape:export-filename="C:\d\webshop\bootstrap\haramia\img\hazhozszallitas.png"
   inkscape:export-xdpi="101.11753"
   inkscape:export-ydpi="101.11753"
   inkscape:version="0.92.2 (5c3e80d, 2017-08-06)"
   sodipodi:docname="torzsvasarlo.svg">
  <defs
     id="defs2" />
  <sodipodi:namedview
     id="base"
     pagecolor="#ffffff"
     bordercolor="#666666"
     borderopacity="1.0"
     inkscape:pageopacity="0.0"
     inkscape:pageshadow="2"
     inkscape:zoom="0.91885246"
     inkscape:cx="470"
     inkscape:cy="151.42857"
     inkscape:document-units="px"
     inkscape:current-layer="layer1"
     showgrid="false"
     units="px"
     inkscape:window-width="1600"
     inkscape:window-height="837"
     inkscape:window-x="-8"
     inkscape:window-y="-8"
     inkscape:window-maximized="1" />
  <metadata
     id="metadata5">
    <rdf:RDF>
      <cc:Work
         rdf:about="">
        <dc:format>image/svg+xml</dc:format>
        <dc:type
           rdf:resource="http://purl.org/dc/dcmitype/StillImage" />
        <dc:title></dc:title>
      </cc:Work>
    </rdf:RDF>
  </metadata>
  <g
     inkscape:label="Layer 1"
     inkscape:groupmode="layer"
     id="layer1"
     transform="translate(0,-191.16665)">
    <g
       id="g4963"
       transform="matrix(0.22637953,0,0,0.22890684,41.416135,192.3237)"
       style="fill:#999999;fill-opacity:1">
      <g
         id="g4905"
         style="fill:#999999;fill-opacity:1">
        <path
           id="path4899"
           d="m 169.88,186.918 -55.987,0.007 c -1.565,0 -2.195,-0.921 -6.659,-8.134 -1.591,-2.571 -4.052,-6.547 -5.455,-8.358 -1.396,1.766 -3.838,5.61 -5.419,8.1 -4.661,7.338 -5.434,8.393 -7.008,8.393 h -7.893 c -0.138,0 -0.194,0.016 -0.197,0.016 l -0.215,0.061 c -0.333,2.228 -0.501,4.461 -0.501,6.662 v 12.387 c 0,24.834 20.204,45.038 45.038,45.038 24.834,0 45.038,-20.204 45.038,-45.038 v -12.387 c 0,-2.202 -0.168,-4.438 -0.502,-6.668 z"
           inkscape:connector-curvature="0"
           style="fill:#999999;fill-opacity:1" />
        <path
           id="path4901"
           d="M 432.232,72.765 H 20 c -11.028,0 -20,8.972 -20,20 v 266.703 c 0,11.028 8.972,20 20,20 h 316.635 c 9.654,0 22.293,-5.606 28.774,-12.764 l 75.464,-83.357 c 6.37,-7.037 11.359,-19.984 11.359,-29.476 V 92.765 c 0,-11.029 -8.971,-20 -20,-20 z m -185.934,76.17 h 151.558 v 28.183 H 246.298 Z m -53.613,63.774 c 0,17.361 -5.303,32.579 -15.356,44.129 6.076,8.541 9.405,19.061 9.405,29.813 l -0.003,12.077 -0.065,24.594 -122.307,-0.025 -0.068,-37.285 c 0,-13.879 2.595,-23.744 8.145,-30.847 C 63.3,243.696 58.48,229.057 58.48,212.709 v -20.694 c 0,-37.001 30.102,-67.104 67.103,-67.104 37,0 67.102,30.103 67.102,67.104 z m 122.864,43.484 H 246.298 V 228.01 h 69.251 z m 104.752,4.521 -79.363,87.919 c -3.685,4.083 -6.703,2.923 -6.706,-2.577 l -0.043,-82.818 c -0.003,-5.5 4.495,-9.997 9.995,-9.994 l 72.818,0.042 c 5.499,0.003 6.984,3.345 3.299,7.428 z"
           inkscape:connector-curvature="0"
           style="fill:#999999;fill-opacity:1" />
        <polygon
           id="polygon4903"
           points="158.391,264.556 92.775,264.556 125.583,299.354 "
           style="fill:#999999;fill-opacity:1" />
      </g>
      <g
         id="g4907"
         style="fill:#999999;fill-opacity:1" />
      <g
         id="g4909"
         style="fill:#999999;fill-opacity:1" />
      <g
         id="g4911"
         style="fill:#999999;fill-opacity:1" />
      <g
         id="g4913"
         style="fill:#999999;fill-opacity:1" />
      <g
         id="g4915"
         style="fill:#999999;fill-opacity:1" />
      <g
         id="g4917"
         style="fill:#999999;fill-opacity:1" />
      <g
         id="g4919"
         style="fill:#999999;fill-opacity:1" />
      <g
         id="g4921"
         style="fill:#999999;fill-opacity:1" />
      <g
         id="g4923"
         style="fill:#999999;fill-opacity:1" />
      <g
         id="g4925"
         style="fill:#999999;fill-opacity:1" />
      <g
         id="g4927"
         style="fill:#999999;fill-opacity:1" />
      <g
         id="g4929"
         style="fill:#999999;fill-opacity:1" />
      <g
         id="g4931"
         style="fill:#999999;fill-opacity:1" />
      <g
         id="g4933"
         style="fill:#999999;fill-opacity:1" />
      <g
         id="g4935"
         style="fill:#999999;fill-opacity:1" />
    </g>
  </g>
</svg>
